<svg xmlns="http://www.w3.org/2000/svg"><style>:root svg:not(:target){display:none}</style><svg viewBox="0 0 24 24" id="heart-red"><use href="#heart" style="--fill: red"></use></svg><svg viewBox="0 0 24 24" id="heart"><path d="m12 21.35-1.45-1.32C5.4 15.36 2 12.28 2 8.5 2 5.42 4.42 3 7.5 3c1.74 0 3.41.81 4.5 2.09A5.99 5.99 0 0 1 16.5 3C19.58 3 22 5.42 22 8.5c0 3.78-3.4 6.86-8.55 11.54L12 21.35Z" fill="var(--fill)"></path></svg><svg viewBox="0 0 24 24" id="sun-alpha"><use href="#sun" style="--fill: #0003"></use></svg><svg viewBox="0 0 24 24" id="sun"><circle cx="12" cy="12" r="5" fill="var(--fill, #000)" ></circle><path d="M12 2v2m8 8h2m-10 8v2M4 12H2m4.5-5.5L5 5m12.5 1.5L19 5m-1.5 12.5L19 19M6.5 17.5 5 19" stroke="var(--fill, #000)" stroke-width="2" stroke-linecap="round"></path></svg><svg viewBox="0 0 24 24" id="thumbup-alpha"><use href="#thumbup" style="--fill: #0003"></use></svg><svg viewBox="0 0 24 24" id="thumbup"><path d="M1 21H5V9H1V21ZM23 10C23 8.9 22.1 8 21 8H14.69L15.64 3.43L15.67 3.11C15.67 2.7 15.5 2.32 15.23 2.05L14.17 1L7.59 7.59C7.22 7.95 7 8.45 7 9V19C7 20.1 7.9 21 9 21H18C18.83 21 19.54 20.5 19.84 19.78L22.86 12.73C22.95 12.5 23 12.26 23 12V10Z" fill="var(--fill)" ></path></svg></svg>